<svg xmlns="http://www.w3.org/2000/svg" xmlns:xlink="http://www.w3.org/1999/xlink" width="1922.061" height="1080" viewBox="0 0 1922.061 1080"><defs><clipPath id="clip-path"><circle id="Ellipse_3" data-name="Ellipse 3" cx="135" cy="135" r="135" transform="translate(0 0)" fill="none" stroke="#fff" stroke-width="1"></circle></clipPath><clipPath id="clip-path-2"><circle id="Ellipse_2" data-name="Ellipse 2" cx="155.628" cy="155.628" r="155.628" fill="none" stroke="#fff" stroke-width="1"></circle></clipPath></defs><g id="Group_1148" data-name="Group 1148" transform="translate(2.061)"><g id="Group_1147" data-name="Group 1147"><g id="Group_1146" data-name="Group 1146"><g id="Group_1145" data-name="Group 1145"><path id="Bg" d="M-2.061,1080l1922.01-2.945L1920,0H0Z" fill="#009480"></path></g><path id="Path_9" data-name="Path 9" d="M209.1,463.092V448.179h14.913V433.266h14.913V418.353h14.913V403.44h14.913V388.528h14.913" transform="translate(402.298 649.104) rotate(180)" fill="none" stroke="#fff" stroke-linecap="round" stroke-miterlimit="10" stroke-width="3" opacity="0.15"></path><path id="Path_8" data-name="Path 8" d="M197.6,474.592V459.679h14.913V444.766h14.913V429.853h14.913V414.94h14.913V400.027h14.913" transform="translate(380.71 650.516) rotate(180)" fill="none" stroke="#fff" stroke-linecap="round" stroke-miterlimit="10" stroke-width="3" opacity="0.15"></path><path id="Path_7" data-name="Path 7" d="M836.518,623.007c.1-3.572,3.089-8.09,5.27-8.653a1.557,1.557,0,0,0,1.051-2.1l-2.594-6.33a1.557,1.557,0,0,0-1.44-.966h-28.7a1.557,1.557,0,0,0-1.557,1.557v.363h-.824a1.556,1.556,0,0,0-1.556,1.556v4.047a1.557,1.557,0,0,0,1.556,1.557h.84a1.541,1.541,0,0,0,1.676,1.395,28.968,28.968,0,0,1,8.523.711c-.041,3.291-1.078,7.274-5.253,9.552a1.556,1.556,0,0,0,1.491,2.733,13.19,13.19,0,0,0,6.824-11.137,9.249,9.249,0,0,1,1.881,1.278,6.616,6.616,0,0,1,2.239,5.012c-.017.757-.484,15.13-9.421,18.738a1.558,1.558,0,0,0-.918,1.032c-3.349,12.216-3.578,34.561-3.586,35.507a1.558,1.558,0,0,0,1.557,1.57h31.382a1.557,1.557,0,0,0,1.554-1.467C846.614,677.282,848.715,637.993,836.518,623.007Zm-15.638-9.462c-.042-.017-.086-.03-.13-.043a29.29,29.29,0,0,0-9.085-1.241v-4.188h26.1l1.629,3.974c-2.9,1.779-5.47,6.053-5.924,9.959h-4.539a9.514,9.514,0,0,0-3.143-5.759A13.972,13.972,0,0,0,820.881,613.546Zm22.591,63.772H815.165c.114-5.233.676-22.307,3.26-32.428,8.557-4.04,10.232-15.564,10.56-19.77h5.245C844.28,637.714,843.732,670.04,843.472,677.318Z" transform="translate(1634.934 -710.068) rotate(46)" fill="#fff" opacity="0.15"></path><path id="Path_6" data-name="Path 6" d="M463.081,323.989v-14h14v-14h14V282h14V268h14V254h14" transform="translate(322.989 632)" fill="none" stroke="#fff" stroke-linecap="round" stroke-miterlimit="10" stroke-width="3" opacity="0.14"></path><path id="Path_5" data-name="Path 5" d="M463.081,323.989v-14h14v-14h14V282h14V268h14V254h14" transform="translate(327.93 681.404)" fill="none" stroke="#fff" stroke-linecap="round" stroke-miterlimit="10" stroke-width="3" opacity="0.09"></path><g id="Element" transform="translate(42 706)" opacity="0.15" clip-path="url(#clip-path)"><g id="Group_27" data-name="Group 27" transform="translate(-16.95 -220.076)"><line id="Line_28" data-name="Line 28" x2="311.575" y2="311.575" fill="none" stroke="#fff" stroke-miterlimit="10" stroke-width="2"></line><line id="Line_29" data-name="Line 29" x2="311.575" y2="311.575" transform="translate(0 15.599)" fill="none" stroke="#fff" stroke-miterlimit="10" stroke-width="2"></line><line id="Line_30" data-name="Line 30" x2="311.575" y2="311.575" transform="translate(0 31.198)" fill="none" stroke="#fff" stroke-miterlimit="10" stroke-width="2"></line><line id="Line_31" data-name="Line 31" x2="311.575" y2="311.575" transform="translate(0 46.797)" fill="none" stroke="#fff" stroke-miterlimit="10" stroke-width="2"></line><line id="Line_32" data-name="Line 32" x2="311.575" y2="311.575" transform="translate(0 62.396)" fill="none" stroke="#fff" stroke-miterlimit="10" stroke-width="2"></line><line id="Line_33" data-name="Line 33" x2="311.575" y2="311.575" transform="translate(0 77.994)" fill="none" stroke="#fff" stroke-miterlimit="10" stroke-width="2"></line><line id="Line_34" data-name="Line 34" x2="311.575" y2="311.575" transform="translate(0 93.593)" fill="none" stroke="#fff" stroke-miterlimit="10" stroke-width="2"></line><line id="Line_35" data-name="Line 35" x2="311.575" y2="311.575" transform="translate(0 109.192)" fill="none" stroke="#fff" stroke-miterlimit="10" stroke-width="2"></line><line id="Line_36" data-name="Line 36" x2="311.575" y2="311.575" transform="translate(0 124.791)" fill="none" stroke="#fff" stroke-miterlimit="10" stroke-width="2"></line><line id="Line_37" data-name="Line 37" x2="311.575" y2="311.575" transform="translate(0 140.39)" fill="none" stroke="#fff" stroke-miterlimit="10" stroke-width="2"></line><line id="Line_38" data-name="Line 38" x2="311.575" y2="311.575" transform="translate(0 155.989)" fill="none" stroke="#fff" stroke-miterlimit="10" stroke-width="2"></line><line id="Line_39" data-name="Line 39" x2="311.575" y2="311.575" transform="translate(0 171.588)" fill="none" stroke="#fff" stroke-miterlimit="10" stroke-width="2"></line><line id="Line_40" data-name="Line 40" x2="311.575" y2="311.575" transform="translate(0 187.187)" fill="none" stroke="#fff" stroke-miterlimit="10" stroke-width="2"></line><line id="Line_41" data-name="Line 41" x2="311.575" y2="311.575" transform="translate(0 202.785)" fill="none" stroke="#fff" stroke-miterlimit="10" stroke-width="2"></line><line id="Line_42" data-name="Line 42" x2="311.575" y2="311.575" transform="translate(0 218.384)" fill="none" stroke="#fff" stroke-miterlimit="10" stroke-width="2"></line><line id="Line_43" data-name="Line 43" x2="311.575" y2="311.575" transform="translate(0 233.983)" fill="none" stroke="#fff" stroke-miterlimit="10" stroke-width="2"></line><line id="Line_44" data-name="Line 44" x2="311.575" y2="311.575" transform="translate(0 249.582)" fill="none" stroke="#fff" stroke-miterlimit="10" stroke-width="2"></line><line id="Line_45" data-name="Line 45" x2="311.575" y2="311.575" transform="translate(0 265.181)" fill="none" stroke="#fff" stroke-miterlimit="10" stroke-width="2"></line><line id="Line_46" data-name="Line 46" x2="311.575" y2="311.575" transform="translate(0 280.78)" fill="none" stroke="#fff" stroke-miterlimit="10" stroke-width="2"></line><line id="Line_47" data-name="Line 47" x2="311.575" y2="311.575" transform="translate(0 296.379)" fill="none" stroke="#fff" stroke-miterlimit="10" stroke-width="2"></line><line id="Line_48" data-name="Line 48" x2="311.575" y2="311.575" transform="translate(0 311.978)" fill="none" stroke="#fff" stroke-miterlimit="10" stroke-width="2"></line><line id="Line_49" data-name="Line 49" x2="311.575" y2="311.575" transform="translate(0 327.576)" fill="none" stroke="#fff" stroke-miterlimit="10" stroke-width="2"></line><line id="Line_50" data-name="Line 50" x2="311.575" y2="311.575" transform="translate(0 343.175)" fill="none" stroke="#fff" stroke-miterlimit="10" stroke-width="2"></line><line id="Line_51" data-name="Line 51" x2="311.575" y2="311.575" transform="translate(0 358.774)" fill="none" stroke="#fff" stroke-miterlimit="10" stroke-width="2"></line><line id="Line_52" data-name="Line 52" x2="311.575" y2="311.575" transform="translate(0 374.373)" fill="none" stroke="#fff" stroke-miterlimit="10" stroke-width="2"></line><line id="Line_53" data-name="Line 53" x2="311.575" y2="311.575" transform="translate(0 389.972)" fill="none" stroke="#fff" stroke-miterlimit="10" stroke-width="2"></line><line id="Line_54" data-name="Line 54" x2="311.575" y2="311.575" transform="translate(0 405.571)" fill="none" stroke="#fff" stroke-miterlimit="10" stroke-width="2"></line></g></g><circle id="Ellipse_1" data-name="Ellipse 1" cx="101.996" cy="101.996" r="101.996" transform="translate(1526.226 472.164) rotate(9)" fill="#fff"></circle><g id="Element_" data-name="Element " transform="translate(1008.417 545.645) rotate(2)" clip-path="url(#clip-path-2)"><g id="Group_23" data-name="Group 23" transform="translate(-19.54 -253.704)"><line id="Line_1" data-name="Line 1" x2="359.184" y2="359.184" fill="none" stroke="#fff" stroke-miterlimit="10" stroke-width="2"></line><line id="Line_2" data-name="Line 2" x2="359.184" y2="359.184" transform="translate(0 17.982)" fill="none" stroke="#fff" stroke-miterlimit="10" stroke-width="2"></line><line id="Line_3" data-name="Line 3" x2="359.184" y2="359.184" transform="translate(0 35.965)" fill="none" stroke="#fff" stroke-miterlimit="10" stroke-width="2"></line><line id="Line_4" data-name="Line 4" x2="359.184" y2="359.184" transform="translate(0 53.947)" fill="none" stroke="#fff" stroke-miterlimit="10" stroke-width="2"></line><line id="Line_5" data-name="Line 5" x2="359.184" y2="359.184" transform="translate(0 71.93)" fill="none" stroke="#fff" stroke-miterlimit="10" stroke-width="2"></line><line id="Line_6" data-name="Line 6" x2="359.184" y2="359.184" transform="translate(0 89.912)" fill="none" stroke="#fff" stroke-miterlimit="10" stroke-width="2"></line><line id="Line_7" data-name="Line 7" x2="359.184" y2="359.184" transform="translate(0 107.894)" fill="none" stroke="#fff" stroke-miterlimit="10" stroke-width="2"></line><line id="Line_8" data-name="Line 8" x2="359.184" y2="359.184" transform="translate(0 125.877)" fill="none" stroke="#fff" stroke-miterlimit="10" stroke-width="2"></line><line id="Line_9" data-name="Line 9" x2="359.184" y2="359.184" transform="translate(0 143.859)" fill="none" stroke="#fff" stroke-miterlimit="10" stroke-width="2"></line><line id="Line_10" data-name="Line 10" x2="359.184" y2="359.184" transform="translate(0 161.841)" fill="none" stroke="#fff" stroke-miterlimit="10" stroke-width="2"></line><line id="Line_11" data-name="Line 11" x2="359.184" y2="359.184" transform="translate(0 179.824)" fill="none" stroke="#fff" stroke-miterlimit="10" stroke-width="2"></line><line id="Line_12" data-name="Line 12" x2="359.184" y2="359.184" transform="translate(0 197.806)" fill="none" stroke="#fff" stroke-miterlimit="10" stroke-width="2"></line><line id="Line_13" data-name="Line 13" x2="359.184" y2="359.184" transform="translate(0 215.789)" fill="none" stroke="#fff" stroke-miterlimit="10" stroke-width="2"></line><line id="Line_14" data-name="Line 14" x2="359.184" y2="359.184" transform="translate(0 233.771)" fill="none" stroke="#fff" stroke-miterlimit="10" stroke-width="2"></line><line id="Line_15" data-name="Line 15" x2="359.184" y2="359.184" transform="translate(0 251.753)" fill="none" stroke="#fff" stroke-miterlimit="10" stroke-width="2"></line><line id="Line_16" data-name="Line 16" x2="359.184" y2="359.184" transform="translate(0 269.736)" fill="none" stroke="#fff" stroke-miterlimit="10" stroke-width="2"></line><line id="Line_17" data-name="Line 17" x2="359.184" y2="359.184" transform="translate(0 287.718)" fill="none" stroke="#fff" stroke-miterlimit="10" stroke-width="2"></line><line id="Line_18" data-name="Line 18" x2="359.184" y2="359.184" transform="translate(0 305.701)" fill="none" stroke="#fff" stroke-miterlimit="10" stroke-width="2"></line><line id="Line_19" data-name="Line 19" x2="359.184" y2="359.184" transform="translate(0 323.683)" fill="none" stroke="#fff" stroke-miterlimit="10" stroke-width="2"></line><line id="Line_20" data-name="Line 20" x2="359.184" y2="359.184" transform="translate(0 341.665)" fill="none" stroke="#fff" stroke-miterlimit="10" stroke-width="2"></line><line id="Line_21" data-name="Line 21" x2="359.184" y2="359.184" transform="translate(0 359.648)" fill="none" stroke="#fff" stroke-miterlimit="10" stroke-width="2"></line><line id="Line_22" data-name="Line 22" x2="359.184" y2="359.184" transform="translate(0 377.63)" fill="none" stroke="#fff" stroke-miterlimit="10" stroke-width="2"></line><line id="Line_23" data-name="Line 23" x2="359.184" y2="359.184" transform="translate(0 395.613)" fill="none" stroke="#fff" stroke-miterlimit="10" stroke-width="2"></line><line id="Line_24" data-name="Line 24" x2="359.184" y2="359.184" transform="translate(0 413.595)" fill="none" stroke="#fff" stroke-miterlimit="10" stroke-width="2"></line><line id="Line_25" data-name="Line 25" x2="359.184" y2="359.184" transform="translate(0 431.577)" fill="none" stroke="#fff" stroke-miterlimit="10" stroke-width="2"></line><line id="Line_26" data-name="Line 26" x2="359.184" y2="359.184" transform="translate(0 449.56)" fill="none" stroke="#fff" stroke-miterlimit="10" stroke-width="2"></line><line id="Line_27" data-name="Line 27" x2="359.184" y2="359.184" transform="translate(0 467.542)" fill="none" stroke="#fff" stroke-miterlimit="10" stroke-width="2"></line></g></g><path id="Path_4" data-name="Path 4" d="M821.695,148.29h-1.864v-4.224H777.509v4.224h-1.864a1.242,1.242,0,0,0-1.242,1.242v7.994a1.242,1.242,0,0,0,1.242,1.242H791.63v2.755a1.242,1.242,0,0,0,1.242,1.242h1.853l-1.356,33.428a1.242,1.242,0,0,0,1.241,1.293h8.118a1.243,1.243,0,0,0,1.242-1.293l-1.356-33.428h1.853a1.243,1.243,0,0,0,1.243-1.242v-2.755h15.985a1.242,1.242,0,0,0,1.242-1.242v-7.994A1.242,1.242,0,0,0,821.695,148.29ZM801.435,195h-5.53l1.307-32.236h2.915Zm1.79-34.72h-9.11v-1.513h9.11Zm17.227-4H776.888v-5.509h43.565Z" transform="matrix(0.695, -0.719, 0.719, 0.695, -66.17, 716.522)" fill="rgba(255,255,255,0.08)"></path><path id="Path_3" data-name="Path 3" d="M1214.485,217.614c-1.308-10.487-7.6-19.382-16.3-23.377V189.18a1.8,1.8,0,0,0-1.8-1.8H1193.7l1.965-48.436a1.8,1.8,0,0,0-1.8-1.873H1182.1a1.8,1.8,0,0,0-1.8,1.873l1.965,48.436h-2.685a1.8,1.8,0,0,0-1.8,1.8v5.057c-8.7,3.995-14.993,12.89-16.3,23.377a1.8,1.8,0,0,0,1.786,2.023H1212.7a1.8,1.8,0,0,0,1.786-2.023Zm-30.508-76.943h8.013l-1.9,46.709h-4.224Zm-2.594,50.309h13.2v2.192h-13.2Zm-16,25.056c1.786-9.053,7.766-16.465,15.677-19.264h13.854c7.911,2.8,13.891,10.211,15.677,19.264Z" transform="translate(-223.044 -3.246) rotate(45)" fill="#fff" opacity="0.05"></path><path id="Path_2" data-name="Path 2" d="M1213.9,645.191v-4.4h-4.643v-1.94a1.94,1.94,0,0,0-1.941-1.94h-3.826l8.973-29.4a1.939,1.939,0,0,0-1.289-2.422l-4.825-1.473a1.937,1.937,0,0,0-2.422,1.289l-9.768,32h-49.217a1.94,1.94,0,0,0-1.941,1.94v1.94h-4.643v4.4h1.945a35.729,35.729,0,0,0,8.51,21.114l2.6,30.662a1.941,1.941,0,0,0,1.934,1.777h45.563a1.941,1.941,0,0,0,1.934-1.777l2.6-30.662a35.727,35.727,0,0,0,8.51-21.114Zm-6.828-37.294,1.113.34-8.751,28.676h-1.218Zm-60.19,32.9h58.494v4.524h-58.494Zm52.6,26.342a33.481,33.481,0,0,1-46.7,0l-1.522-17.938H1201Zm-56.843-21.944H1143v2.067a1.94,1.94,0,0,0,1.941,1.94h2.42l1.088,12.818A33.353,33.353,0,0,1,1142.634,645.191Zm54.491,49.672h-42l-2.064-24.33a35.8,35.8,0,0,0,46.126,0Zm6.681-32.847,1.087-12.818h2.42a1.94,1.94,0,0,0,1.941-1.94v-2.067h.364A33.355,33.355,0,0,1,1203.806,662.016Z" transform="matrix(0.914, -0.407, 0.407, 0.914, 430.484, 871.355)" fill="#fff" opacity="0.1"></path><path id="Path_1" data-name="Path 1" d="M124.1,687.9c-4.539-7.015-5-19.362-5-23.9h.179a1.817,1.817,0,0,0,1.817-1.817V654.19a1.817,1.817,0,0,0-1.817-1.817H108.328v-4.029a1.817,1.817,0,0,0-1.817-1.817H103.8l1.984-48.888a1.817,1.817,0,0,0-1.815-1.89H92.1a1.817,1.817,0,0,0-1.816,1.89l1.983,48.888h-2.71a1.817,1.817,0,0,0-1.817,1.817v4.029H76.788a1.817,1.817,0,0,0-1.817,1.817v7.987a1.817,1.817,0,0,0,1.817,1.817h.18c-.006,4.542-.463,16.89-5,23.9a1.817,1.817,0,0,0,1.526,2.8h49.083a1.817,1.817,0,0,0,1.526-2.8ZM93.989,599.383h8.088l-1.913,47.145H95.9Zm-2.618,50.778h13.324v2.212H91.371Zm-12.765,5.846H117.46v4.353H78.605Zm8.432,31.061H82.959c2.214-6.961,2.2-18.568,2.1-23.075h2.9C88.061,668.681,88.222,681.36,87.037,687.069Zm-6.429-23.075H83.6c.094,4.509.1,16.483-2.164,23.075h-4.88C80.228,679.17,80.614,668.338,80.608,663.994Zm7.909,23.075c1.165-6.1,1-18.4.893-23.075h26.048c-.006,4.344.381,15.176,4.055,23.075Z" transform="matrix(0.719, -0.695, 0.695, 0.719, -264.553, -66.098)" fill="#fff" opacity="0.09"></path></g></g></g></svg>